<svg xmlns="http://www.w3.org/2000/svg" width="35.499" height="24.696" viewBox="0 0 35.499 24.696">
  <g id="Group_7791" data-name="Group 7791" transform="translate(-546.492 -1009.171)">
    <path id="Path_33" data-name="Path 33" d="M555.983,1098.95h-9.431c-.031-3.388-.545-6.855,2.07-9.622a20.109,20.109,0,0,1,2.47-1.961.759.759,0,0,1,.985.019,6.294,6.294,0,0,0,5.135.945,8.966,8.966,0,0,0,1.572-.718l1.588,3.024C557.018,1092.26,555.734,1095.171,555.983,1098.95Z" transform="translate(0 -67.217)" fill="#abcd52"/>
    <path id="Path_34" data-name="Path 34" d="M716.668,1098.963h-9.427c.241-3.718-1-6.652-4.4-8.306l1.57-3a12.438,12.438,0,0,0,2.358.823,6.126,6.126,0,0,0,4.387-1.1.725.725,0,0,1,.867-.042,8.3,8.3,0,0,1,4.636,7.4C716.714,1096.118,716.668,1097.5,716.668,1098.963Z" transform="translate(-134.695 -67.233)" fill="#abcd52"/>
    <path id="Path_35" data-name="Path 35" d="M642.447,1131.526H630.192c-.035-.062-.1-.12-.1-.177.012-1.358-.058-2.725.066-4.073a5.21,5.21,0,0,1,4.951-4.719,14.014,14.014,0,0,1,3.3.165,5.037,5.037,0,0,1,3.945,4.3c.155,1.273.1,2.573.126,3.861C642.487,1131.082,642.461,1131.284,642.447,1131.526Z" transform="translate(-72.018 -97.659)" fill="#abcd52"/>
    <path id="Path_36" data-name="Path 36" d="M583.289,1019.21a5.019,5.019,0,1,1,5.033-4.965A4.984,4.984,0,0,1,583.289,1019.21Z" transform="translate(-27.382 0)" fill="#abcd52"/>
    <path id="Path_37" data-name="Path 37" d="M703.587,1009.252a5.014,5.014,0,1,1-4.993,5.07A4.973,4.973,0,0,1,703.587,1009.252Z" transform="translate(-131.036 -0.069)" fill="#abcd52"/>
    <path id="Path_38" data-name="Path 38" d="M654.14,1059.37a3.259,3.259,0,0,1,3.266,3.3,3.331,3.331,0,0,1-3.35,3.316,3.369,3.369,0,0,1-3.285-3.329A3.311,3.311,0,0,1,654.14,1059.37Z" transform="translate(-89.837 -43.246)" fill="#abcd52"/>
  </g>
</svg>
