<svg xmlns="http://www.w3.org/2000/svg" width="29.19" height="28.619" viewBox="0 0 29.19 28.619">
  <path id="Icon_metro-event-available" data-name="Icon metro-event-available" d="M28.368,18.251l-1.719-1.517-7.914,6.983L15.3,20.684,13.578,22.2l5.157,4.55ZM32.373,6.718H30.752V3.856H27.508V6.718H14.535V3.856H11.292V6.718H9.67A3.055,3.055,0,0,0,6.443,9.58L6.427,29.613A3.07,3.07,0,0,0,9.67,32.475h22.7a3.07,3.07,0,0,0,3.243-2.862V9.58A3.07,3.07,0,0,0,32.373,6.718Zm0,22.895H9.67V13.873h22.7Z" transform="translate(-6.427 -3.856)" fill="#abcd52"/>
</svg>
