<svg xmlns="http://www.w3.org/2000/svg" width="28" height="28" viewBox="0 0 28 28">
  <g id="Group_6257" data-name="Group 6257" transform="translate(-652 -734)">
    <g id="Ellipse_94" data-name="Ellipse 94" transform="translate(652 734)" fill="none" stroke="#abcd52" stroke-width="1">
      <circle cx="14" cy="14" r="14" stroke="none"/>
      <circle cx="14" cy="14" r="13.5" fill="none"/>
    </g>
    <g id="Group_6249" data-name="Group 6249" transform="translate(110.508 -268.172)">
      <path id="Path_33" data-name="Path 33" d="M551.538,1093.444h-5.014c-.016-1.8-.289-3.644,1.1-5.116a10.684,10.684,0,0,1,1.313-1.043.4.4,0,0,1,.523.01,3.347,3.347,0,0,0,2.73.5,4.771,4.771,0,0,0,.836-.382l.844,1.607A4.152,4.152,0,0,0,551.538,1093.444Z" transform="translate(0 -72.278)" fill="#abcd52"/>
      <path id="Path_34" data-name="Path 34" d="M710.192,1093.46H705.18a4.159,4.159,0,0,0-2.339-4.416l.834-1.6a6.612,6.612,0,0,0,1.254.438,3.257,3.257,0,0,0,2.333-.584.385.385,0,0,1,.461-.022,4.414,4.414,0,0,1,2.465,3.935C710.216,1091.947,710.192,1092.683,710.192,1093.46Z" transform="translate(-144.837 -72.295)" fill="#abcd52"/>
      <path id="Path_35" data-name="Path 35" d="M636.658,1127.313h-6.515c-.019-.033-.051-.063-.051-.094.006-.722-.031-1.449.035-2.165a2.77,2.77,0,0,1,2.632-2.509,7.449,7.449,0,0,1,1.754.088,2.678,2.678,0,0,1,2.1,2.285c.082.677.051,1.368.067,2.053C636.679,1127.077,636.666,1127.185,636.658,1127.313Z" transform="translate(-77.44 -105.012)" fill="#abcd52"/>
      <path id="Path_36" data-name="Path 36" d="M580.941,1014.508a2.668,2.668,0,1,1,2.676-2.64A2.649,2.649,0,0,1,580.941,1014.508Z" transform="translate(-29.443 0)" fill="#abcd52"/>
      <path id="Path_37" data-name="Path 37" d="M701.248,1009.252a2.666,2.666,0,1,1-2.654,2.7A2.643,2.643,0,0,1,701.248,1009.252Z" transform="translate(-140.902 -0.074)" fill="#abcd52"/>
      <path id="Path_38" data-name="Path 38" d="M652.562,1059.37a1.733,1.733,0,0,1,1.736,1.754,1.771,1.771,0,0,1-1.781,1.763,1.791,1.791,0,0,1-1.747-1.77A1.76,1.76,0,0,1,652.562,1059.37Z" transform="translate(-96.601 -46.503)" fill="#abcd52"/>
    </g>
  </g>
</svg>
